# xmcd
#
# Track frame offsets:
#	150
#	27158
#	54737
#	82536
#	103370
#	126930
#	152615
#	171316
#	189150
#	211681
#
# Disc length: 3108 seconds
#
# Revision: 1
# Processed by: cddbd v1.5.2PL0 Copyright (c) Steve Scherf et al.
# Submitted via: audiograbber 1.83.01
#
DISCID=780c220a
DTITLE=Seckou Keita Skq - The silimbo passage
DYEAR=2008
DGENRE=African
TTITLE0=Blimo
TTITLE1=Mande-Arab
TTITLE2=Fonding Ké
TTITLE3=Chelima
TTITLE4=Miniyamba
TTITLE5=Konte Djula
TTITLE6=Souaressi
TTITLE7=Dingba Don
TTITLE8=Kanu Foro
TTITLE9=Missing you
EXTD=
EXTT0=
EXTT1=
EXTT2=
EXTT3=
EXTT4=
EXTT5=
EXTT6=
EXTT7=
EXTT8=
EXTT9=
PLAYORDER=
